<mxfile host="app.diagrams.net" modified="2024-06-05T00:48:31.286Z" agent="Mozilla/5.0 (X11; Linux x86_64) AppleWebKit/537.36 (KHTML, like Gecko) Chrome/125.0.0.0 Safari/537.36" etag="vUkJs9Hcb3m5rudrUrso" version="24.4.13" type="device">
  <diagram name="PÃ¡gina-1" id="qZIARH0m6MkCtxZh8qjQ">
    <mxGraphModel dx="2901" dy="793" grid="1" gridSize="10" guides="1" tooltips="1" connect="1" arrows="1" fold="1" page="1" pageScale="1" pageWidth="827" pageHeight="1169" math="0" shadow="0">
      <root>
        <mxCell id="0" />
        <mxCell id="1" parent="0" />
        <mxCell id="z2ePFZLriLPJmYfpLNky-3" value="Front-End" style="shape=hexagon;perimeter=hexagonPerimeter2;whiteSpace=wrap;html=1;fixedSize=1;" vertex="1" parent="1">
          <mxGeometry x="220" y="205" width="90" height="70" as="geometry" />
        </mxCell>
        <mxCell id="z2ePFZLriLPJmYfpLNky-5" value="Script" style="text;html=1;align=center;verticalAlign=middle;whiteSpace=wrap;rounded=0;" vertex="1" parent="1">
          <mxGeometry x="-3.5" y="180" width="60" height="30" as="geometry" />
        </mxCell>
        <mxCell id="z2ePFZLriLPJmYfpLNky-7" value=":Object" style="shape=umlLifeline;perimeter=lifelinePerimeter;whiteSpace=wrap;html=1;container=1;dropTarget=0;collapsible=0;recursiveResize=0;outlineConnect=0;portConstraint=eastwest;newEdgeStyle={&quot;curved&quot;:0,&quot;rounded&quot;:0};" vertex="1" parent="1">
          <mxGeometry x="-250" y="180" width="100" height="300" as="geometry" />
        </mxCell>
        <mxCell id="z2ePFZLriLPJmYfpLNky-6" value="" style="sketch=0;pointerEvents=1;shadow=0;dashed=0;html=1;strokeColor=none;fillColor=#505050;labelPosition=center;verticalLabelPosition=bottom;verticalAlign=top;outlineConnect=0;align=center;shape=mxgraph.office.concepts.script;" vertex="1" parent="1">
          <mxGeometry y="215.5" width="53" height="49" as="geometry" />
        </mxCell>
        <mxCell id="z2ePFZLriLPJmYfpLNky-10" value="" style="endArrow=none;html=1;rounded=0;dashed=1;" edge="1" parent="1" target="z2ePFZLriLPJmYfpLNky-6">
          <mxGeometry width="50" height="50" relative="1" as="geometry">
            <mxPoint x="27" y="560" as="sourcePoint" />
            <mxPoint x="10" y="390" as="targetPoint" />
          </mxGeometry>
        </mxCell>
      </root>
    </mxGraphModel>
  </diagram>
</mxfile>
